<svg width="180" height="180" viewBox="0 0 180 180" fill="none"
    xmlns="http://www.w3.org/2000/svg">
    <g clip-path="url(#clip0_501_2)">
        <path d="M90 180C139.706 180 180 139.706 180 90C180 40.2943 139.706 0 90 0C40.2943 0 0 40.2943 0 90C0 139.706 40.2943 180 90 180Z" fill="#0A6FB9"/>
        <mask id="mask0_501_2" style="mask-type:alpha" maskUnits="userSpaceOnUse" x="16" y="16" width="149" height="149">
            <g clip-path="url(#clip1_501_2)">
                <path d="M124.568 49.1492L124.704 50.25L123.055 50.5994L122.832 52.9517H124.821L127.459 52.6996L128.817 51.0749L127.372 50.5142L126.576 49.6L125.383 47.6672L124.821 44.9417L122.57 45.3925L121.949 46.3577V47.4393L123.026 48.179L124.568 49.1492Z" fill="black"/>
                <path d="M122.657 50.0513L122.773 48.5768L121.464 48.0116L119.626 48.4387L118.253 50.6236V52.0446H119.849L122.657 50.0513Z" fill="black"/>
                <path d="M84.818 56.3251L84.4106 57.3679H82.4486V58.3815H82.9165C82.9165 58.3815 82.9458 58.5948 82.9867 58.8787L84.1873 58.7794L84.9316 58.3114L85.1257 57.373L86.1005 57.2878L86.4812 56.4996L85.5887 56.3151L84.818 56.3251Z" fill="black"/>
                <path d="M79.7614 58.1632L79.6888 59.1505L81.1127 59.0315L81.258 58.0397L80.4043 57.368L79.7614 58.1632Z" fill="black"/>
                <path d="M164.976 89.7361C164.956 87.5557 164.845 85.3954 164.641 83.2635C163.947 76.1626 162.254 69.3577 159.703 62.9798C159.519 62.5093 159.345 62.0268 159.146 61.5563C155.755 53.5483 150.992 46.2583 145.172 39.9652C144.794 39.5531 144.406 39.1503 144.018 38.7479C142.912 37.6057 141.791 36.4874 140.613 35.4204C127.372 23.3601 109.778 16 90.5 16C71.0604 16 53.34 23.4962 40.0599 35.7334C36.9653 38.5855 34.1233 41.7043 31.5405 45.0364C21.8105 57.6272 16 73.3957 16 90.5C16 131.577 49.4209 165 90.5 165C119.398 165 144.483 148.451 156.832 124.34C159.47 119.195 161.527 113.699 162.914 107.937C163.263 106.482 163.574 105.007 163.836 103.518C164.588 99.2866 165 94.9354 165 90.4954C164.99 90.2479 164.976 89.9932 164.976 89.7361ZM150.954 59.9604L151.38 59.4753C151.947 60.5761 152.486 61.6894 152.986 62.8266L152.273 62.7974L150.949 62.9794V59.9599H150.954V59.9604ZM140.186 46.9567L140.195 43.6292C141.369 44.8711 142.495 46.1489 143.571 47.4756L142.232 49.4714L137.537 49.4251L137.247 48.4478L140.186 46.9567ZM50.3205 38.6944V38.5684H51.8096L51.9452 38.0566H54.3823V39.1211L53.6764 40.0545H50.3151V38.694H50.3205V38.6944ZM52.7046 42.017C52.7046 42.017 54.1982 41.7623 54.3293 41.7623C54.4529 41.7623 54.3293 43.2539 54.3293 43.2539L50.9559 43.4672L50.3155 42.6962L52.7046 42.017ZM155.697 71.5864H150.246L146.918 69.1151L143.426 69.4524V71.5864H142.321L141.132 70.7378L135.074 69.2053V65.2812L127.401 65.8753L125.019 67.1535H121.978L120.479 67.0032L116.783 69.0596V72.9227L109.229 78.3767L109.855 80.7074H111.39L110.987 82.9261L109.91 83.324L109.855 89.1199L116.381 96.5602H119.227L119.397 96.1089H124.51L125.984 94.7459H128.884L130.475 96.3368L134.787 96.7831L134.219 102.526L139.021 110.992L136.49 115.823L136.659 118.093L138.653 120.077V125.543L141.262 129.055V133.604H143.513C130.97 149.013 111.86 158.874 90.4854 158.874C52.7843 158.874 22.1136 128.21 22.1136 90.5046C22.1136 81.015 24.061 71.9692 27.5726 63.7504V61.6189L30.0168 58.6508C30.8655 57.0453 31.7751 55.4857 32.7478 53.9607L32.8522 55.2022L30.0173 58.6508C29.1373 60.3144 28.3124 62.0121 27.5731 63.7508V67.6382L30.408 69.0057V74.4139L33.136 79.0626L35.3552 79.3999L35.6391 77.8065L33.0321 73.7735L32.5157 69.8544H34.0507L34.7007 73.8924L38.479 79.3999L37.5064 81.1824L39.9 84.8539L45.8659 86.3284V85.3657L48.25 85.703L48.027 87.4054L49.8989 87.7498L52.7994 88.538L56.8904 93.2013L62.1115 93.5942L62.6279 97.8551L59.0461 100.353L58.8833 104.158L58.3669 106.491L63.5375 112.962L63.9328 115.182C63.9328 115.182 65.8072 115.687 66.0401 115.687C66.2635 115.687 70.2406 118.704 70.2406 118.704V130.403L71.657 130.805L70.6993 136.199L73.083 139.385L72.6372 144.74L75.7944 150.279L79.842 153.815L83.9042 153.897L84.3017 152.583L81.3114 150.066L81.4859 148.82L82.0169 147.282L82.1309 145.72L80.1108 145.662L79.0922 144.382L80.7708 142.762L80.9988 141.545L79.1219 141.006L79.2308 139.871L81.9034 139.464L85.9652 137.513L87.3282 135.006L91.5845 129.554L90.6194 125.291L91.9264 123.02L95.8501 123.137L98.4913 121.041L99.3475 112.82L102.286 109.114L102.803 106.733L100.135 105.879L98.3719 102.981L92.3527 102.921L87.5753 101.105L87.3524 97.6973L85.7615 94.9108L81.4471 94.8503L78.9445 90.9337L76.7328 89.8546L76.6188 91.0477L72.5812 91.2852L71.1068 89.2289L66.8993 88.3752L63.4336 92.384L57.9795 91.453L57.5817 85.3052L53.6046 84.6239L55.193 81.6095L54.7372 79.8779L49.5061 83.3724L46.2178 82.97L45.0418 80.3993L45.7669 77.7464L47.5783 74.4047L51.752 72.2873H59.818L59.7913 74.7466L62.6918 76.097L62.4588 71.8966L64.549 69.7939L68.7665 67.022L69.06 65.0771L73.2629 60.6997L77.7326 58.2212L77.3398 57.8986L80.3688 55.049L81.4772 55.3425L81.9839 55.9779L83.1361 54.6996L83.42 54.576L82.1589 54.3965L80.8714 53.9845V52.7476L81.5527 52.1924H83.0468L83.7377 52.4955L84.3296 53.6885L85.0547 53.5771V53.4752L85.2635 53.5433L87.3591 53.221L87.6571 52.1928L88.8477 52.4959V53.6092L87.7348 54.3682H87.7423L87.8997 55.5905L91.7048 56.7568C91.7048 56.7568 91.7048 56.7714 91.7144 56.8027L92.5823 56.7276L92.6432 55.0832L89.6338 53.7132L89.4685 52.9225L91.9615 52.0738L92.0755 49.6852L89.4685 48.0967L89.2965 44.0612L85.7143 45.822H84.4023L84.7517 42.7517L79.8725 41.6045L77.862 43.1299V47.7716L74.2414 48.9212L72.7862 51.9453L71.2174 52.1974V48.3247L67.8102 47.8517L66.1003 46.7384L65.4161 44.2307L71.5155 40.6657L74.4961 39.756L74.7966 41.7615L76.4627 41.6717L76.5913 40.6652L78.3304 40.4152L78.3596 40.0637L77.6149 39.7556L77.445 38.6936L79.5815 38.5141L80.8718 37.1728L80.947 37.0735L80.9616 37.0785L81.3544 36.671L85.8433 36.1058L87.8245 37.789L82.6201 40.5609L89.2455 42.1251L90.0992 39.9084H92.9997L94.0183 37.9777L91.9715 37.4659V35.0213L85.5599 32.1813L81.1265 32.6931L78.6214 33.9977L78.7913 37.182L76.1793 36.7842L75.7768 35.0259L78.2845 32.7512L73.7351 32.5278L72.4305 32.9257L71.8632 34.4606L73.5681 34.747L73.2287 36.4519L70.3332 36.6214L69.8774 37.7589L65.6715 37.8746C65.6715 37.8746 65.5576 35.4905 65.3781 35.4905C65.2157 35.4905 68.6764 35.43 68.6764 35.43L71.179 32.9879L69.8135 32.3066L68.0022 34.0695L64.9873 33.9L63.1493 31.3873H59.2862L55.2532 34.3972H58.9468L59.2791 35.4813L58.316 36.388L62.41 36.5045L63.0307 37.9789L58.4254 37.809L58.1974 36.6715L55.3066 36.0457L53.7666 35.197L50.3205 35.2258C61.6097 27.0024 75.4863 22.1353 90.4904 22.1353C107.774 22.1353 123.579 28.5958 135.627 39.2154L134.822 40.6657L131.664 41.9022L130.331 43.3474L130.641 45.0255L132.266 45.2535L133.251 47.7027L136.049 46.5701L136.52 49.8513H135.666L133.362 49.5094L130.811 49.936L128.337 53.4331L124.806 53.9837L124.297 57.0102L125.791 57.3617L125.354 59.3091L121.842 58.6036L118.627 59.3091L117.943 61.1013L118.496 64.8625L120.387 65.7454L123.564 65.7262L125.703 65.5321L126.362 63.8297L129.709 59.479L131.907 59.9303L134.075 57.9683L134.482 59.5037L139.817 63.1025L139.167 63.9825L136.761 63.8539L137.692 65.1635L139.177 65.4933L140.913 64.7682L140.874 62.6801L141.65 62.2948L141.029 61.6373L137.469 59.651L136.528 57.0152H139.492L140.428 57.9537L142.989 60.1482L143.091 62.8061L145.734 65.6169L146.714 61.7633L148.548 60.764L148.883 63.9166L150.672 65.8786L154.237 65.8206C154.931 67.5935 155.551 69.3952 156.085 71.2383L155.697 71.5864ZM56.6282 49.8521L58.4108 48.9989L60.0309 49.3867L59.4782 51.562L57.732 52.1127L56.6282 49.8521ZM66.1249 54.9693V56.3761H62.0409L60.501 55.947L60.8842 54.9697L62.8462 54.1598H65.5334V54.9697H66.1249V54.9693ZM68.0072 56.9313V58.2918L66.979 58.9514L65.7083 59.1914C65.7083 59.1914 65.7083 57.1446 65.7083 56.9309H68.0072V56.9313ZM66.855 56.3761V54.751L68.2589 56.0313L66.855 56.3761ZM67.495 59.6523V60.9789L66.5152 61.9587H64.3399L64.6792 60.4671L65.7074 60.3774L65.9162 59.8656L67.495 59.6523ZM62.0827 56.9313H64.3403L61.4398 60.9789L60.2492 60.3386L60.5064 58.6337L62.0827 56.9313ZM71.3247 59.1914V60.5131H69.1493L68.5578 59.6523V58.4204H68.7273L71.3247 59.1914ZM69.3288 57.368L69.9446 56.718L70.9874 57.368L70.1529 58.0593L69.3288 57.368ZM156.803 75.0396L157.017 74.785C157.113 75.1732 157.201 75.561 157.293 75.9492L156.803 75.0396Z" fill="black"/>
                <path d="M27.5777 61.6143V63.7458C28.317 62.0021 29.1419 60.3098 30.0219 58.6433L27.5777 61.6143Z" fill="black"/>
            </g>
        </mask>
        <g mask="url(#mask0_501_2)">
            <circle cx="90.5" cy="90.5" r="66.5" fill="white"/>
        </g>
    </g>
    <defs>
        <clipPath id="clip0_501_2">
            <rect width="180" height="180" fill="white"/>
        </clipPath>
        <clipPath id="clip1_501_2">
            <rect width="149" height="149" fill="white" transform="translate(16 16)"/>
        </clipPath>
    </defs>
</svg>
